<?xml version="1.0" encoding="UTF-8"?>
<svg xmlns="http://www.w3.org/2000/svg" viewBox="0 0 1200 1180" width="1200" height="1180" font-family="Helvetica, Arial, sans-serif">
  <defs>
    <marker id="arrow" viewBox="0 0 10 10" refX="9" refY="5" markerWidth="8" markerHeight="8" orient="auto">
      <path d="M0,0 L0,10 L10,5 z" fill="#333"/>
    </marker>
    <marker id="arrowred" viewBox="0 0 10 10" refX="9" refY="5" markerWidth="9" markerHeight="9" orient="auto">
      <path d="M0,0 L0,10 L10,5 z" fill="#a82a2a"/>
    </marker>
    <marker id="arrowgreen" viewBox="0 0 10 10" refX="9" refY="5" markerWidth="9" markerHeight="9" orient="auto">
      <path d="M0,0 L0,10 L10,5 z" fill="#2a7a2a"/>
    </marker>
  </defs>

  <!-- ============ Title ============ -->
  <text x="600" y="32" text-anchor="middle" font-size="19" font-weight="bold">pgstatindex (PostgreSQL 18, btree): bloat and fragmentation on disk</text>
  <text x="600" y="52" text-anchor="middle" font-size="12" fill="#555">contrib/pgstattuple/pgstatindex.c — pinned to REL_18_STABLE @ 6cb30725</text>

  <!-- ============ Anatomy ============ -->
  <text x="40" y="92" font-size="14" font-weight="bold">Btree leaf page anatomy (one block, BLCKSZ = 8192 bytes)</text>

  <!-- Page box (horizontal, low addresses on the left) -->
  <rect x="40" y="104" width="660" height="58" fill="#ffffff" stroke="#333" stroke-width="1.2"/>

  <!-- Header -->
  <rect x="40" y="104" width="26" height="58" fill="#dde2eb" stroke="#333"/>
  <text x="53" y="138" text-anchor="middle" font-size="9" transform="rotate(-90, 53, 138)">Page header</text>

  <!-- Line pointers -->
  <rect x="66" y="104" width="62" height="58" fill="#fce4b6" stroke="#333"/>
  <text x="97" y="128" text-anchor="middle" font-size="10">line pointers</text>
  <text x="97" y="142" text-anchor="middle" font-size="10">(ItemIdData)</text>
  <text x="97" y="156" text-anchor="middle" font-size="9" fill="#555">grow right →</text>

  <!-- Free space -->
  <rect x="128" y="104" width="320" height="58" fill="#f4f4f4" stroke="#333" stroke-dasharray="3,3"/>
  <text x="288" y="130" text-anchor="middle" font-size="11" font-style="italic">free space</text>
  <text x="288" y="146" text-anchor="middle" font-size="10">PageGetExactFreeSpace(page)</text>

  <!-- Tuples -->
  <rect x="448" y="104" width="170" height="58" fill="#cfe6cf" stroke="#333"/>
  <text x="533" y="128" text-anchor="middle" font-size="10">index tuples</text>
  <text x="533" y="142" text-anchor="middle" font-size="10">(IndexTuple = key + heap TID)</text>
  <text x="533" y="156" text-anchor="middle" font-size="9" fill="#555">← grow left</text>

  <!-- Special -->
  <rect x="618" y="104" width="82" height="58" fill="#e0d2ee" stroke="#333"/>
  <text x="659" y="128" text-anchor="middle" font-size="10">special</text>
  <text x="659" y="142" text-anchor="middle" font-size="10">BTPageOpaqueData</text>
  <text x="659" y="156" text-anchor="middle" font-size="9" fill="#555">btpo_prev/next/flags</text>

  <!-- Pointer markers -->
  <line x1="66" y1="162" x2="66" y2="174" stroke="#333"/>
  <line x1="128" y1="162" x2="128" y2="174" stroke="#333"/>
  <line x1="448" y1="162" x2="448" y2="174" stroke="#333"/>
  <line x1="618" y1="162" x2="618" y2="174" stroke="#333"/>
  <text x="66" y="186" text-anchor="middle" font-size="10">SizeOfPageHeaderData</text>
  <text x="128" y="186" text-anchor="middle" font-size="10">pd_lower</text>
  <text x="448" y="186" text-anchor="middle" font-size="10">pd_upper</text>
  <text x="618" y="186" text-anchor="middle" font-size="10">pd_special</text>

  <!-- max_avail bracket (green) -->
  <line x1="66" y1="208" x2="618" y2="208" stroke="#2a7a2a" stroke-width="1.5"/>
  <line x1="66" y1="200" x2="66" y2="216" stroke="#2a7a2a" stroke-width="1.5"/>
  <line x1="618" y1="200" x2="618" y2="216" stroke="#2a7a2a" stroke-width="1.5"/>
  <text x="342" y="226" text-anchor="middle" font-size="11" fill="#2a7a2a" font-weight="bold">max_avail = pd_special − SizeOfPageHeaderData (≈ BLCKSZ − 40, constant per leaf)</text>

  <!-- free_space bracket (red) -->
  <line x1="128" y1="246" x2="448" y2="246" stroke="#a82a2a" stroke-width="1.5"/>
  <line x1="128" y1="238" x2="128" y2="254" stroke="#a82a2a" stroke-width="1.5"/>
  <line x1="448" y1="238" x2="448" y2="254" stroke="#a82a2a" stroke-width="1.5"/>
  <text x="288" y="264" text-anchor="middle" font-size="11" fill="#a82a2a" font-weight="bold">free_space = pd_upper − pd_lower (PageGetExactFreeSpace) — varies per leaf</text>

  <!-- ============ Formulas panel ============ -->
  <rect x="730" y="80" width="450" height="200" fill="#fafafa" stroke="#333" stroke-width="1.2" rx="6"/>
  <text x="955" y="100" text-anchor="middle" font-size="13" font-weight="bold">How pgstatindex_impl turns leaves into numbers</text>

  <text x="745" y="124" font-size="12" font-weight="bold" fill="#a82a2a">Bloat (intra-page)</text>
  <text x="745" y="142" font-size="11">avg_leaf_density = 100 − 100 × Σ free_space ÷ Σ max_avail</text>
  <text x="745" y="158" font-size="10" fill="#555">low density ⇒ leaves mostly empty ⇒ bloated</text>

  <text x="745" y="184" font-size="12" font-weight="bold" fill="#b07e00">Fragmentation (inter-page leaf chain order)</text>
  <text x="745" y="202" font-size="11">leaf_fragmentation = 100 × fragments ÷ leaf_pages</text>
  <text x="745" y="218" font-size="10" fill="#555">fragment = leaf with btpo_next != P_NONE  AND  btpo_next &lt; blkno</text>
  <text x="745" y="232" font-size="10" fill="#555">(right sibling lives on an earlier disk block)</text>

  <text x="745" y="256" font-size="12" font-weight="bold" fill="#6a2a8a">Page-state counters (do not feed density)</text>
  <text x="745" y="272" font-size="11">deleted_pages = BTP_DELETED set (any leaf or internal)</text>
  <text x="745" y="288" font-size="11">empty_pages = BTP_HALF_DEAD (mid-deletion, "half dead")</text>

  <!-- ============ Scenarios row ============ -->
  <text x="40" y="320" font-size="15" font-weight="bold">Three indexes side by side: same key set, same 6 disk blocks, different states</text>
  <text x="40" y="338" font-size="11" fill="#555">Each index has 1 metapage (M, blue) + 1 internal root (R, yellow) + 4 leaves (L, green fill = data, light gray = free space). Arrows below each index trace the leaf chain via btpo_next.</text>

  <!-- ====================== HEALTHY PANEL ====================== -->
  <g>
    <!-- Panel border -->
    <rect x="10" y="354" width="380" height="816" fill="#f7fbf6" stroke="#2a7a2a" stroke-width="1.5" rx="8"/>
    <!-- Title -->
    <rect x="10" y="354" width="380" height="34" fill="#2a7a2a" stroke="none" rx="8"/>
    <rect x="10" y="378" width="380" height="10" fill="#2a7a2a" stroke="none"/>
    <text x="200" y="376" text-anchor="middle" font-size="14" font-weight="bold" fill="#fff">Healthy index</text>
    <text x="200" y="406" text-anchor="middle" font-size="11" fill="#444">leaves nearly full • leaf chain in disk order</text>
    <text x="200" y="422" text-anchor="middle" font-size="10" fill="#666" font-style="italic">freshly built or recently REINDEXed</text>

    <!-- Pages: M (60), R (104), L1=A (148), L2=B (192), L3=C (236), L4=D (280) -->
    <text x="200" y="446" text-anchor="middle" font-size="11" font-weight="bold">disk layout (block 0 .. 5)</text>

    <!-- Block 0: metapage -->
    <rect x="70" y="456" width="40" height="150" fill="#dde7f5" stroke="#225"/>
    <text x="90" y="535" text-anchor="middle" font-size="11" font-weight="bold" fill="#225">M</text>
    <text x="90" y="618" text-anchor="middle" font-size="9" fill="#555">block 0</text>

    <!-- Block 1: internal root -->
    <rect x="114" y="456" width="40" height="150" fill="#fff" stroke="#333"/>
    <rect x="114" y="456" width="40" height="5" fill="#dde2eb"/>
    <rect x="114" y="461" width="40" height="135" fill="#fff2cc"/>
    <rect x="114" y="601" width="40" height="5" fill="#e0d2ee"/>
    <text x="134" y="535" text-anchor="middle" font-size="11" font-weight="bold" fill="#7a5a00">R</text>
    <text x="134" y="618" text-anchor="middle" font-size="9" fill="#555">block 1</text>

    <!-- Leaves: ~90% fill -->
    <!-- Block 2: leaf A, fill=0.90, filled=126, free=14 -->
    <rect x="158" y="456" width="40" height="150" fill="#fff" stroke="#333"/>
    <rect x="158" y="456" width="40" height="5" fill="#dde2eb"/>
    <rect x="158" y="461" width="40" height="14" fill="#f4f4f4"/>
    <rect x="158" y="475" width="40" height="126" fill="#cfe6cf"/>
    <rect x="158" y="601" width="40" height="5" fill="#e0d2ee"/>
    <text x="178" y="618" text-anchor="middle" font-size="9" fill="#555">block 2 (A)</text>

    <!-- Block 3: leaf B -->
    <rect x="202" y="456" width="40" height="150" fill="#fff" stroke="#333"/>
    <rect x="202" y="456" width="40" height="5" fill="#dde2eb"/>
    <rect x="202" y="461" width="40" height="14" fill="#f4f4f4"/>
    <rect x="202" y="475" width="40" height="126" fill="#cfe6cf"/>
    <rect x="202" y="601" width="40" height="5" fill="#e0d2ee"/>
    <text x="222" y="618" text-anchor="middle" font-size="9" fill="#555">block 3 (B)</text>

    <!-- Block 4: leaf C -->
    <rect x="246" y="456" width="40" height="150" fill="#fff" stroke="#333"/>
    <rect x="246" y="456" width="40" height="5" fill="#dde2eb"/>
    <rect x="246" y="461" width="40" height="14" fill="#f4f4f4"/>
    <rect x="246" y="475" width="40" height="126" fill="#cfe6cf"/>
    <rect x="246" y="601" width="40" height="5" fill="#e0d2ee"/>
    <text x="266" y="618" text-anchor="middle" font-size="9" fill="#555">block 4 (C)</text>

    <!-- Block 5: leaf D -->
    <rect x="290" y="456" width="40" height="150" fill="#fff" stroke="#333"/>
    <rect x="290" y="456" width="40" height="5" fill="#dde2eb"/>
    <rect x="290" y="461" width="40" height="14" fill="#f4f4f4"/>
    <rect x="290" y="475" width="40" height="126" fill="#cfe6cf"/>
    <rect x="290" y="601" width="40" height="5" fill="#e0d2ee"/>
    <text x="310" y="618" text-anchor="middle" font-size="9" fill="#555">block 5 (D)</text>

    <!-- Chain arrows (all forward) -->
    <text x="200" y="640" text-anchor="middle" font-size="11" font-weight="bold">leaf chain (btpo_next)</text>
    <path d="M 178 612 Q 200 666 222 612" fill="none" stroke="#2a7a2a" stroke-width="1.5" marker-end="url(#arrowgreen)"/>
    <path d="M 222 612 Q 244 666 266 612" fill="none" stroke="#2a7a2a" stroke-width="1.5" marker-end="url(#arrowgreen)"/>
    <path d="M 266 612 Q 288 666 310 612" fill="none" stroke="#2a7a2a" stroke-width="1.5" marker-end="url(#arrowgreen)"/>
    <text x="200" y="700" text-anchor="middle" font-size="10" fill="#2a7a2a">A → B → C → D, every next &gt; current</text>
    <text x="200" y="716" text-anchor="middle" font-size="10" fill="#2a7a2a">no out-of-order leaves</text>

    <!-- Output stats -->
    <rect x="24" y="736" width="352" height="420" fill="#ffffff" stroke="#2a7a2a" stroke-width="1" rx="6"/>
    <text x="200" y="757" text-anchor="middle" font-size="12" font-weight="bold">pgstatindex output</text>

    <text x="40" y="787" font-size="12" font-weight="bold" fill="#a82a2a">avg_leaf_density: 90.0 %</text>
    <text x="40" y="803" font-size="10" fill="#555">100 − 100 × (4×815) ÷ (4×8152)</text>
    <text x="40" y="817" font-size="10" fill="#555">leaves are nearly full → low bloat</text>

    <text x="40" y="847" font-size="12" font-weight="bold" fill="#b07e00">leaf_fragmentation: 0.0 %</text>
    <text x="40" y="863" font-size="10" fill="#555">100 × 0 ÷ 4 — no leaf has next &lt; blkno</text>

    <text x="40" y="893" font-size="11" font-weight="bold">page-type counts</text>
    <text x="40" y="911" font-size="11">leaf_pages = 4    internal_pages = 1</text>
    <text x="40" y="929" font-size="11">empty_pages = 0    deleted_pages = 0</text>

    <text x="40" y="959" font-size="11" font-weight="bold">size</text>
    <text x="40" y="977" font-size="11">index_size = (1+4+1+0+0) × 8192</text>
    <text x="40" y="993" font-size="11">           = 49 152 bytes  (48 KB)</text>

    <text x="40" y="1023" font-size="11" font-weight="bold">verdict</text>
    <text x="40" y="1041" font-size="10" fill="#555">tight pages, ordered chain.</text>
    <text x="40" y="1055" font-size="10" fill="#555">Both metrics in a healthy range.</text>
  </g>

  <!-- ====================== BLOATED PANEL ====================== -->
  <g>
    <rect x="400" y="354" width="380" height="816" fill="#fdf6f6" stroke="#a82a2a" stroke-width="1.5" rx="8"/>
    <rect x="400" y="354" width="380" height="34" fill="#a82a2a" stroke="none" rx="8"/>
    <rect x="400" y="378" width="380" height="10" fill="#a82a2a" stroke="none"/>
    <text x="590" y="376" text-anchor="middle" font-size="14" font-weight="bold" fill="#fff">Bloated index</text>
    <text x="590" y="406" text-anchor="middle" font-size="11" fill="#444">leaves mostly empty • leaf chain still in order</text>
    <text x="590" y="422" text-anchor="middle" font-size="10" fill="#666" font-style="italic">heavy DELETEs / UPDATEs without REINDEX or vacuum recovery</text>

    <text x="590" y="446" text-anchor="middle" font-size="11" font-weight="bold">disk layout (block 0 .. 5)</text>

    <!-- Block 0: metapage -->
    <rect x="460" y="456" width="40" height="150" fill="#dde7f5" stroke="#225"/>
    <text x="480" y="535" text-anchor="middle" font-size="11" font-weight="bold" fill="#225">M</text>
    <text x="480" y="618" text-anchor="middle" font-size="9" fill="#555">block 0</text>

    <!-- Block 1: internal root -->
    <rect x="504" y="456" width="40" height="150" fill="#fff" stroke="#333"/>
    <rect x="504" y="456" width="40" height="5" fill="#dde2eb"/>
    <rect x="504" y="461" width="40" height="135" fill="#fff2cc"/>
    <rect x="504" y="601" width="40" height="5" fill="#e0d2ee"/>
    <text x="524" y="535" text-anchor="middle" font-size="11" font-weight="bold" fill="#7a5a00">R</text>
    <text x="524" y="618" text-anchor="middle" font-size="9" fill="#555">block 1</text>

    <!-- Leaves: ~30% fill, filled=42, free=98 -->
    <!-- Block 2: leaf A -->
    <rect x="548" y="456" width="40" height="150" fill="#fff" stroke="#333"/>
    <rect x="548" y="456" width="40" height="5" fill="#dde2eb"/>
    <rect x="548" y="461" width="40" height="98" fill="#f4f4f4"/>
    <rect x="548" y="559" width="40" height="42" fill="#cfe6cf"/>
    <rect x="548" y="601" width="40" height="5" fill="#e0d2ee"/>
    <text x="568" y="618" text-anchor="middle" font-size="9" fill="#555">block 2 (A)</text>

    <!-- Block 3: leaf B -->
    <rect x="592" y="456" width="40" height="150" fill="#fff" stroke="#333"/>
    <rect x="592" y="456" width="40" height="5" fill="#dde2eb"/>
    <rect x="592" y="461" width="40" height="98" fill="#f4f4f4"/>
    <rect x="592" y="559" width="40" height="42" fill="#cfe6cf"/>
    <rect x="592" y="601" width="40" height="5" fill="#e0d2ee"/>
    <text x="612" y="618" text-anchor="middle" font-size="9" fill="#555">block 3 (B)</text>

    <!-- Block 4: leaf C -->
    <rect x="636" y="456" width="40" height="150" fill="#fff" stroke="#333"/>
    <rect x="636" y="456" width="40" height="5" fill="#dde2eb"/>
    <rect x="636" y="461" width="40" height="98" fill="#f4f4f4"/>
    <rect x="636" y="559" width="40" height="42" fill="#cfe6cf"/>
    <rect x="636" y="601" width="40" height="5" fill="#e0d2ee"/>
    <text x="656" y="618" text-anchor="middle" font-size="9" fill="#555">block 4 (C)</text>

    <!-- Block 5: leaf D -->
    <rect x="680" y="456" width="40" height="150" fill="#fff" stroke="#333"/>
    <rect x="680" y="456" width="40" height="5" fill="#dde2eb"/>
    <rect x="680" y="461" width="40" height="98" fill="#f4f4f4"/>
    <rect x="680" y="559" width="40" height="42" fill="#cfe6cf"/>
    <rect x="680" y="601" width="40" height="5" fill="#e0d2ee"/>
    <text x="700" y="618" text-anchor="middle" font-size="9" fill="#555">block 5 (D)</text>

    <!-- Chain arrows (all forward, like healthy) -->
    <text x="590" y="640" text-anchor="middle" font-size="11" font-weight="bold">leaf chain (btpo_next)</text>
    <path d="M 568 612 Q 590 666 612 612" fill="none" stroke="#2a7a2a" stroke-width="1.5" marker-end="url(#arrowgreen)"/>
    <path d="M 612 612 Q 634 666 656 612" fill="none" stroke="#2a7a2a" stroke-width="1.5" marker-end="url(#arrowgreen)"/>
    <path d="M 656 612 Q 678 666 700 612" fill="none" stroke="#2a7a2a" stroke-width="1.5" marker-end="url(#arrowgreen)"/>
    <text x="590" y="700" text-anchor="middle" font-size="10" fill="#2a7a2a">chain ordering is fine — bloat is about</text>
    <text x="590" y="716" text-anchor="middle" font-size="10" fill="#2a7a2a">empty space inside each page</text>

    <!-- Output stats -->
    <rect x="414" y="736" width="352" height="420" fill="#ffffff" stroke="#a82a2a" stroke-width="1" rx="6"/>
    <text x="590" y="757" text-anchor="middle" font-size="12" font-weight="bold">pgstatindex output</text>

    <text x="430" y="787" font-size="12" font-weight="bold" fill="#a82a2a">avg_leaf_density: 30.0 %</text>
    <text x="430" y="803" font-size="10" fill="#555">100 − 100 × (4×5706) ÷ (4×8152)</text>
    <text x="430" y="817" font-size="10" fill="#555">most of each leaf is unused → bloat</text>

    <text x="430" y="847" font-size="12" font-weight="bold" fill="#b07e00">leaf_fragmentation: 0.0 %</text>
    <text x="430" y="863" font-size="10" fill="#555">chain order untouched by deletes</text>

    <text x="430" y="893" font-size="11" font-weight="bold">page-type counts</text>
    <text x="430" y="911" font-size="11">leaf_pages = 4    internal_pages = 1</text>
    <text x="430" y="929" font-size="11">empty_pages = 0    deleted_pages = 0</text>

    <text x="430" y="959" font-size="11" font-weight="bold">size</text>
    <text x="430" y="977" font-size="11">index_size = 49 152 bytes (48 KB)</text>
    <text x="430" y="993" font-size="10" fill="#555">same as healthy — bloat does not</text>
    <text x="430" y="1006" font-size="10" fill="#555">add blocks here, just wastes the ones we have</text>

    <text x="430" y="1036" font-size="11" font-weight="bold">verdict</text>
    <text x="430" y="1054" font-size="10" fill="#555">density &lt;&lt; 90% on a freshly built index</text>
    <text x="430" y="1068" font-size="10" fill="#555">is the canonical bloat signal.</text>
    <text x="430" y="1084" font-size="10" fill="#555">REINDEX rebuilds the leaves dense.</text>
  </g>

  <!-- ====================== FRAGMENTED PANEL ====================== -->
  <g>
    <rect x="790" y="354" width="380" height="816" fill="#fffaf0" stroke="#b07e00" stroke-width="1.5" rx="8"/>
    <rect x="790" y="354" width="380" height="34" fill="#b07e00" stroke="none" rx="8"/>
    <rect x="790" y="378" width="380" height="10" fill="#b07e00" stroke="none"/>
    <text x="980" y="376" text-anchor="middle" font-size="14" font-weight="bold" fill="#fff">Fragmented index</text>
    <text x="980" y="406" text-anchor="middle" font-size="11" fill="#444">leaves nearly full • leaf chain crosses backward</text>
    <text x="980" y="422" text-anchor="middle" font-size="10" fill="#666" font-style="italic">page splits inserted in non-key order over time</text>

    <text x="980" y="446" text-anchor="middle" font-size="11" font-weight="bold">disk layout (block 0 .. 5)</text>

    <!-- Block 0: metapage -->
    <rect x="850" y="456" width="40" height="150" fill="#dde7f5" stroke="#225"/>
    <text x="870" y="535" text-anchor="middle" font-size="11" font-weight="bold" fill="#225">M</text>
    <text x="870" y="618" text-anchor="middle" font-size="9" fill="#555">block 0</text>

    <!-- Block 1: internal root -->
    <rect x="894" y="456" width="40" height="150" fill="#fff" stroke="#333"/>
    <rect x="894" y="456" width="40" height="5" fill="#dde2eb"/>
    <rect x="894" y="461" width="40" height="135" fill="#fff2cc"/>
    <rect x="894" y="601" width="40" height="5" fill="#e0d2ee"/>
    <text x="914" y="535" text-anchor="middle" font-size="11" font-weight="bold" fill="#7a5a00">R</text>
    <text x="914" y="618" text-anchor="middle" font-size="9" fill="#555">block 1</text>

    <!-- Leaves: same ~90% fill but key labels are scrambled
         disk:    block 2 = B (next=5),  block 3 = D (next=P_NONE),
                  block 4 = A (next=2),  block 5 = C (next=3)
         logical: A → B → C → D  =>  4 → 2 → 5 → 3
    -->
    <!-- Block 2: leaf B -->
    <rect x="938" y="456" width="40" height="150" fill="#fff" stroke="#333"/>
    <rect x="938" y="456" width="40" height="5" fill="#dde2eb"/>
    <rect x="938" y="461" width="40" height="14" fill="#f4f4f4"/>
    <rect x="938" y="475" width="40" height="126" fill="#cfe6cf"/>
    <rect x="938" y="601" width="40" height="5" fill="#e0d2ee"/>
    <text x="958" y="618" text-anchor="middle" font-size="9" fill="#555">block 2 (B)</text>

    <!-- Block 3: leaf D (rightmost) -->
    <rect x="982" y="456" width="40" height="150" fill="#fff" stroke="#333"/>
    <rect x="982" y="456" width="40" height="5" fill="#dde2eb"/>
    <rect x="982" y="461" width="40" height="14" fill="#f4f4f4"/>
    <rect x="982" y="475" width="40" height="126" fill="#cfe6cf"/>
    <rect x="982" y="601" width="40" height="5" fill="#e0d2ee"/>
    <text x="1002" y="618" text-anchor="middle" font-size="9" fill="#555">block 3 (D)</text>

    <!-- Block 4: leaf A (leftmost) -->
    <rect x="1026" y="456" width="40" height="150" fill="#fff" stroke="#333"/>
    <rect x="1026" y="456" width="40" height="5" fill="#dde2eb"/>
    <rect x="1026" y="461" width="40" height="14" fill="#f4f4f4"/>
    <rect x="1026" y="475" width="40" height="126" fill="#cfe6cf"/>
    <rect x="1026" y="601" width="40" height="5" fill="#e0d2ee"/>
    <text x="1046" y="618" text-anchor="middle" font-size="9" fill="#555">block 4 (A)</text>

    <!-- Block 5: leaf C -->
    <rect x="1070" y="456" width="40" height="150" fill="#fff" stroke="#333"/>
    <rect x="1070" y="456" width="40" height="5" fill="#dde2eb"/>
    <rect x="1070" y="461" width="40" height="14" fill="#f4f4f4"/>
    <rect x="1070" y="475" width="40" height="126" fill="#cfe6cf"/>
    <rect x="1070" y="601" width="40" height="5" fill="#e0d2ee"/>
    <text x="1090" y="618" text-anchor="middle" font-size="9" fill="#555">block 5 (C)</text>

    <!-- Chain arrows (3 next pointers; D's next = P_NONE so no arrow from block 3) -->
    <text x="980" y="640" text-anchor="middle" font-size="11" font-weight="bold">leaf chain (btpo_next)</text>

    <!-- block 2 (B) next=5 (C): forward -->
    <path d="M 958 612 Q 1024 700 1090 612" fill="none" stroke="#2a7a2a" stroke-width="1.6" marker-end="url(#arrowgreen)"/>
    <text x="1024" y="704" text-anchor="middle" font-size="9" fill="#2a7a2a">2 → 5</text>

    <!-- block 4 (A) next=2 (B): backward, FRAG -->
    <path d="M 1046 612 Q 1002 690 958 612" fill="none" stroke="#a82a2a" stroke-width="1.8" marker-end="url(#arrowred)"/>
    <text x="1002" y="694" text-anchor="middle" font-size="9" fill="#a82a2a" font-weight="bold">4 → 2  FRAG</text>

    <!-- block 5 (C) next=3 (D): backward, FRAG -->
    <path d="M 1090 612 Q 1046 660 1002 612" fill="none" stroke="#a82a2a" stroke-width="1.8" marker-end="url(#arrowred)"/>
    <text x="1046" y="664" text-anchor="middle" font-size="9" fill="#a82a2a" font-weight="bold">5 → 3  FRAG</text>

    <text x="980" y="722" text-anchor="middle" font-size="10" fill="#555">logical key order: A → B → C → D</text>
    <text x="980" y="736" text-anchor="middle" font-size="10" fill="#555">disk-block walk: 4 → 2 → 5 → 3 (zig-zag)</text>

    <!-- Output stats -->
    <rect x="804" y="752" width="352" height="404" fill="#ffffff" stroke="#b07e00" stroke-width="1" rx="6"/>
    <text x="980" y="773" text-anchor="middle" font-size="12" font-weight="bold">pgstatindex output</text>

    <text x="820" y="803" font-size="12" font-weight="bold" fill="#a82a2a">avg_leaf_density: 90.0 %</text>
    <text x="820" y="819" font-size="10" fill="#555">leaves are still nearly full</text>
    <text x="820" y="833" font-size="10" fill="#555">density alone does not flag this</text>

    <text x="820" y="863" font-size="12" font-weight="bold" fill="#b07e00">leaf_fragmentation: 50.0 %</text>
    <text x="820" y="879" font-size="10" fill="#555">100 × 2 ÷ 4 — block 4's next=2 (back),</text>
    <text x="820" y="893" font-size="10" fill="#555">block 5's next=3 (back) → 2 fragments</text>

    <text x="820" y="923" font-size="11" font-weight="bold">page-type counts</text>
    <text x="820" y="941" font-size="11">leaf_pages = 4    internal_pages = 1</text>
    <text x="820" y="959" font-size="11">empty_pages = 0    deleted_pages = 0</text>

    <text x="820" y="989" font-size="11" font-weight="bold">size</text>
    <text x="820" y="1007" font-size="11">index_size = 49 152 bytes (48 KB)</text>

    <text x="820" y="1037" font-size="11" font-weight="bold">verdict</text>
    <text x="820" y="1055" font-size="10" fill="#555">range scans on this index do extra</text>
    <text x="820" y="1069" font-size="10" fill="#555">disk seeks to follow the leaf chain.</text>
    <text x="820" y="1083" font-size="10" fill="#555">REINDEX restores sequential order.</text>
  </g>
</svg>
